<svg xmlns="http://www.w3.org/2000/svg" viewBox="0 0 282.82 274.64"><defs><style>.cls-1{fill:#1a171b;}.cls-2{fill:none;stroke:#1a171b;stroke-miterlimit:10;stroke-width:5px;}</style></defs><title>Ресурс 2</title><g id="Слой_2" data-name="Слой 2"><g id="Слой_1-2" data-name="Слой 1"><path class="cls-1" d="M271.18,253.86a9.14,9.14,0,1,1-4.68,1.29A9.14,9.14,0,0,1,271.18,253.86Z"/><path class="cls-1" d="M151,262.68c0,.11,0,.21,0,.32a9.14,9.14,0,0,1-18.28,0c0-.11,0-.21,0-.32a9.14,9.14,0,0,1,18.26,0Z"/><path class="cls-1" d="M16.32,255.15a9.14,9.14,0,1,1-4.68-1.29A9.12,9.12,0,0,1,16.32,255.15Z"/><line class="cls-2" x1="16.32" y1="255.15" x2="40.52" y2="214.55"/><line class="cls-2" x1="132.75" y1="263" x2="20.78" y2="263"/><path class="cls-2" d="M132.76,262.68l-1.74-.13-1.74-.16c-1.73-.16-3.46-.36-5.17-.6l-1.7-.24-1.71-.27L119,261l-1.69-.31q-4.21-.8-8.31-1.87l-1.64-.44-1.63-.46c-.63-.17-1.25-.36-1.87-.55L102.7,257c-2.21-.69-4.4-1.45-6.55-2.26-1.05-.39-2.09-.79-3.12-1.21s-2.06-.85-3.08-1.3l-1.23-.54-1.81-.83-1.5-.71c-1-.48-2-1-3-1.48L81,247.9c-.85-.45-1.69-.91-2.52-1.37l-.39-.22c-.91-.51-1.82-1-2.72-1.57l-.16-.1q-4.24-2.53-8.29-5.39l0,0c-.82-.58-1.65-1.17-2.46-1.77l-.34-.26c-.83-.62-1.66-1.25-2.48-1.9s-1.72-1.36-2.56-2.06-1.64-1.37-2.45-2.07l-.14-.12c-.77-.67-1.53-1.35-2.29-2l-.23-.21L52,227l-.63-.6c-.68-.66-1.36-1.33-2-2S47.76,222.79,47,222c-1.44-1.53-2.85-3.1-4.21-4.7-.11-.12-.21-.25-.31-.37-.67-.78-1.33-1.57-2-2.37h0a130.25,130.25,0,1,1,202.18.69"/><path class="cls-2" d="M151,262.68a130,130,0,0,0,91.68-47.45l23.8,39.92"/><line class="cls-2" x1="262.04" y1="263" x2="151.03" y2="263"/><line class="cls-2" x1="242.7" y1="215.23" x2="142.01" y2="46.31"/><polyline class="cls-2" points="141.89 44.5 141.13 45.78 40.52 214.54"/><path class="cls-2" d="M20.78,263a9.14,9.14,0,1,1-4.46-7.85A9.14,9.14,0,0,1,20.78,263Z"/><path class="cls-2" d="M151,263a9.14,9.14,0,0,1-18.28,0c0-.11,0-.21,0-.32a9.14,9.14,0,0,1,18.26,0C151,262.79,151,262.89,151,263Z"/><path class="cls-2" d="M266.5,255.15A9.14,9.14,0,1,1,262,263,9.08,9.08,0,0,1,266.5,255.15Z"/></g></g></svg>